# xmcd
#
# Track frame offsets:
#	150
#	8547
#	19022
#	27129
#	38903
#	49485
#	60715
#	70852
#	83729
#	94388
#	104720
#	117849
#	132729
#	148697
#	163085
#	175218
#	185650
#	197008
#	211471
#	221393
#	233884
#	244455
#	257174
#	267940
#	280139
#	293778
#	305213
#	318113
#
# Disc length: 4654 seconds
#
# Revision: 0
# Processed by: cddbd v1.5.1PL2 Copyright (c) Steve Scherf et al.
# Submitted via: dBpowerAMP V4.0
#
DISCID=ae122c1c
DTITLE=Yardbirds - ..... Where the action is
DYEAR=1967
DGENRE=Blues
TTITLE0=I'aint got you
TTITLE1=For your love
TTITLE2=I'm not talking
TTITLE3=I wish you would
TTITLE4=Heart full of soul
TTITLE5=I've been wrong
TTITLE6=Too much monkey bussines
TTITLE7=Love me like I love you
TTITLE8=I'm a man
TTITLE9=Evil hearted you
TTITLE10=Still I'm sad
TTITLE11=Hang on sloopy
TTITLE12=Smokestack Lightning
TTITLE13=Mr you're a better man than I
TTITLE14=Train kept a rolling
TTITLE15=Shapes of things
TTITLE16=Dust my blues
TTITLE17=Scratch my back
TTITLE18=Over under sideways down
TTITLE19=The sun is shining
TTITLE20=Shapes of theings (version 2)
TTITLE21=Most likely you'll go your way
TTITLE22=Little games
TTITLE23=Drinking muddy water
TTITLE24=Think about it
TTITLE25=Goodnight sweet josephine
TTITLE26=My Baby
TTITLE27=I'm a man (Stockholm 1967)
EXTD=
EXTT0=
EXTT1=
EXTT2=
EXTT3=
EXTT4=
EXTT5=
EXTT6=
EXTT7=
EXTT8=
EXTT9=
EXTT10=
EXTT11=
EXTT12=
EXTT13=
EXTT14=
EXTT15=
EXTT16=
EXTT17=
EXTT18=
EXTT19=
EXTT20=
EXTT21=
EXTT22=
EXTT23=
EXTT24=
EXTT25=
EXTT26=
EXTT27=
PLAYORDER=
